<svg id="visual" viewBox="0 0 960 300" width="960" height="300" xmlns="http://www.w3.org/2000/svg" xmlns:xlink="http://www.w3.org/1999/xlink" version="1.1"><rect x="0" y="0" width="960" height="300" fill="#202731"></rect><path d="M0 103L22.8 102.2C45.7 101.3 91.3 99.7 137 95.2C182.7 90.7 228.3 83.3 274 83.7C319.7 84 365.3 92 411.2 93.5C457 95 503 90 548.8 93.7C594.7 97.3 640.3 109.7 686 112.7C731.7 115.7 777.3 109.3 823 108.2C868.7 107 914.3 111 937.2 113L960 115L960 0L937.2 0C914.3 0 868.7 0 823 0C777.3 0 731.7 0 686 0C640.3 0 594.7 0 548.8 0C503 0 457 0 411.2 0C365.3 0 319.7 0 274 0C228.3 0 182.7 0 137 0C91.3 0 45.7 0 22.8 0L0 0Z" fill="#f05d9b"></path><path d="M0 60L22.8 59.8C45.7 59.7 91.3 59.3 137 62.3C182.7 65.3 228.3 71.7 274 76.3C319.7 81 365.3 84 411.2 84.2C457 84.3 503 81.7 548.8 78.3C594.7 75 640.3 71 686 68.7C731.7 66.3 777.3 65.7 823 65C868.7 64.3 914.3 63.7 937.2 63.3L960 63L960 0L937.2 0C914.3 0 868.7 0 823 0C777.3 0 731.7 0 686 0C640.3 0 594.7 0 548.8 0C503 0 457 0 411.2 0C365.3 0 319.7 0 274 0C228.3 0 182.7 0 137 0C91.3 0 45.7 0 22.8 0L0 0Z" fill="#f54f90"></path><path d="M0 50L22.8 50.2C45.7 50.3 91.3 50.7 137 53.5C182.7 56.3 228.3 61.7 274 62.3C319.7 63 365.3 59 411.2 60.3C457 61.7 503 68.3 548.8 67.5C594.7 66.7 640.3 58.3 686 59.2C731.7 60 777.3 70 823 69.8C868.7 69.7 914.3 59.3 937.2 54.2L960 49L960 0L937.2 0C914.3 0 868.7 0 823 0C777.3 0 731.7 0 686 0C640.3 0 594.7 0 548.8 0C503 0 457 0 411.2 0C365.3 0 319.7 0 274 0C228.3 0 182.7 0 137 0C91.3 0 45.7 0 22.8 0L0 0Z" fill="#f93f83"></path><path d="M0 54L22.8 50.3C45.7 46.7 91.3 39.3 137 36C182.7 32.7 228.3 33.3 274 37.3C319.7 41.3 365.3 48.7 411.2 49.8C457 51 503 46 548.8 42.8C594.7 39.7 640.3 38.3 686 37.5C731.7 36.7 777.3 36.3 823 38.5C868.7 40.7 914.3 45.3 937.2 47.7L960 50L960 0L937.2 0C914.3 0 868.7 0 823 0C777.3 0 731.7 0 686 0C640.3 0 594.7 0 548.8 0C503 0 457 0 411.2 0C365.3 0 319.7 0 274 0C228.3 0 182.7 0 137 0C91.3 0 45.7 0 22.8 0L0 0Z" fill="#fd2a75"></path><path d="M0 25L22.8 26.8C45.7 28.7 91.3 32.3 137 33.2C182.7 34 228.3 32 274 32C319.7 32 365.3 34 411.2 31.8C457 29.7 503 23.3 548.8 20.8C594.7 18.3 640.3 19.7 686 19.7C731.7 19.7 777.3 18.3 823 19.8C868.7 21.3 914.3 25.7 937.2 27.8L960 30L960 0L937.2 0C914.3 0 868.7 0 823 0C777.3 0 731.7 0 686 0C640.3 0 594.7 0 548.8 0C503 0 457 0 411.2 0C365.3 0 319.7 0 274 0C228.3 0 182.7 0 137 0C91.3 0 45.7 0 22.8 0L0 0Z" fill="#ff0066"></path></svg>